<svg id="_1" data-name="1" xmlns="http://www.w3.org/2000/svg" width="37.484" height="36.814" viewBox="0 0 37.484 36.814">
  <path id="Path_68" data-name="Path 68" d="M13.453,23.279h4.059a2.149,2.149,0,0,0-4.059,0Z" transform="translate(3.259 4.681)" fill="#ff6a00"/>
  <path id="Path_69" data-name="Path 69" d="M15.12,24.962c-.295,0-.721.561-.721,1.442,0,.865.432,1.441.721,1.441s.721-.561.721-1.441S15.414,24.962,15.12,24.962Z" transform="translate(3.622 4.644)" fill="#ff6a00"/>
  <path id="Path_70" data-name="Path 70" d="M19.963,24.079h1.916l-1.622-4.325H12.606l-1.622,4.325H12.9a3.6,3.6,0,0,1,7.063,0Z" transform="translate(2.311 3.976)" fill="#ff6a00"/>
  <path id="Path_71" data-name="Path 71" d="M25.3,12.6V4.053L16.205,0l-9.1,4.053V12.6l9.1,9.459ZM12.209,16.389a.8.8,0,0,1-.226-.781l1.069-4.435L9.3,9.262a.745.745,0,0,1-.366-.72A.7.7,0,0,1,9.39,7.9l4.559-1.355,1.7-4.716a.574.574,0,0,1,1.115,0l1.7,4.716L23.023,7.9h0a.7.7,0,0,1,.458.642.745.745,0,0,1-.366.72l-3.756,1.912,1.066,4.435a.8.8,0,0,1-.226.781.529.529,0,0,1-.694.017l-3.3-2.617-3.3,2.617a.529.529,0,0,1-.694-.017Z" transform="translate(2.537)" fill="#ff6a00"/>
  <path id="Path_72" data-name="Path 72" d="M16.9,11.229l2.693,1.8-.9-3.159h0A.721.721,0,0,1,19.091,9l3.079-1.32-3.69-.922a.721.721,0,0,1-.488-.415l-1.5-3.5L15,6.347a.72.72,0,0,1-.487.415l-3.691.922L13.9,9a.721.721,0,0,1,.41.861l-.9,3.159,2.693-1.8a.724.724,0,0,1,.8,0Z" transform="translate(2.247 1.094)" fill="#ff6a00"/>
  <path id="Path_73" data-name="Path 73" d="M25.3,12.175v-1.69L16.6,19.53a.536.536,0,0,1-.8,0l-8.7-9.046v1.689l9.1,9.462Z" transform="translate(2.537 1.683)" fill="#ff6a00"/>
  <path id="Path_74" data-name="Path 74" d="M14.385,26.8c0-1.616.8-2.883,1.819-2.883s1.819,1.266,1.819,2.883-.8,2.883-1.819,2.883h9.1V26.381l-2.071-2.46H9.178l-2.07,2.46v3.306h9.1c-1.021,0-1.819-1.267-1.819-2.883Zm4.852,0h3.639v1.442H19.237Zm-6.065,1.442H9.534V26.8h3.639Z" transform="translate(2.537 4.244)" fill="#ff6a00"/>
  <path id="Path_75" data-name="Path 75" d="M7.142,9.338H3.263L4.7,12.221H7.142Z" transform="translate(1.061 1.943)" fill="#ff6a00"/>
  <path id="Path_76" data-name="Path 76" d="M26.523,29.129H6.686a.729.729,0,0,0,0,1.441H26.523a.729.729,0,0,0,0-1.441Z" transform="translate(2.137 6.243)" fill="#ff6a00"/>
  <path id="Path_77" data-name="Path 77" d="M7.742,6.214H1.7L3.143,9.1h4.6Z" transform="translate(0.461 1.293)" fill="#ff6a00"/>
  <path id="Path_78" data-name="Path 78" d="M23.773,12.221h2.438l1.442-2.882h-3.88Z" transform="translate(5.507 1.943)" fill="#ff6a00"/>
  <path id="Path_79" data-name="Path 79" d="M8.342,3.089H.139L1.58,5.971H8.342Z" transform="translate(-0.139 1.186)" fill="#ff6a00"/>
  <path id="Path_80" data-name="Path 80" d="M23.773,3.089V5.971h6.762l1.442-2.882Z" transform="translate(5.507 1.186)" fill="#ff6a00"/>
  <path id="Path_81" data-name="Path 81" d="M23.773,9.1h4.6l1.442-2.882H23.773Z" transform="translate(5.507 1.293)" fill="#ff6a00"/>
</svg>
