<svg id="_4" data-name="4" xmlns="http://www.w3.org/2000/svg" width="34.344" height="31.995" viewBox="0 0 34.344 31.995">
  <path id="Path_82" data-name="Path 82" d="M31.412,0H8.6A1.466,1.466,0,0,0,7.118,1.483V6.508h2.965V3H29.93v22.27H14.385V30.3a3.791,3.791,0,0,1-.4,1.7H31.412a1.466,1.466,0,0,0,1.482-1.482V1.483A1.466,1.466,0,0,0,31.412,0ZM19.988,30.043A1.446,1.446,0,1,1,21.434,28.6,1.45,1.45,0,0,1,19.988,30.043Z" transform="translate(1.449 0)" fill="#f68000"/>
  <path id="Path_83" data-name="Path 83" d="M12.816,6.377H2.44a1.7,1.7,0,0,0-1.7,1.7V28.1a1.7,1.7,0,0,0,1.7,1.7H12.816a1.7,1.7,0,0,0,1.7-1.7V8.076A1.7,1.7,0,0,0,12.816,6.377ZM6.2,7.606H9.02a.4.4,0,0,1,0,.8H6.2a.4.4,0,0,1,0-.8ZM7.61,28.538a1.121,1.121,0,1,1,1.121-1.121A1.126,1.126,0,0,1,7.61,28.538Zm5.278-3.471H2.332V9.667H12.925v15.4Z" transform="translate(-0.741 2.19)" fill="#f68000"/>
</svg>
