<svg xmlns="http://www.w3.org/2000/svg" width="32.375" height="32.375" viewBox="0 0 32.375 32.375">
  <path id="_6" data-name="6" d="M31.638,15.531,17.195,1.088h0A3.713,3.713,0,0,0,14.569,0H5.921A5.571,5.571,0,0,0,.351,5.571v8.647a3.713,3.713,0,0,0,1.088,2.626L15.882,31.287a3.714,3.714,0,0,0,5.252,0l10.5-10.5a3.714,3.714,0,0,0,0-5.252ZM8.82,8.468A2.785,2.785,0,1,1,9.635,6.5,2.785,2.785,0,0,1,8.82,8.468ZM19.384,24.421v2.04H16.6V24.5a5.086,5.086,0,0,1-3.027-1.481l-.323-.328.325-.326,1.383-1.387.329-.33.329.33h0a3.1,3.1,0,0,0,2.316.788c1.475,0,1.475-.669,1.475-.888h0a.766.766,0,0,0-.19-.584,1.162,1.162,0,0,0-.717-.263l-1.326-.185a4.169,4.169,0,0,1-2.383-1.04,3.368,3.368,0,0,1-.921-2.482A3.6,3.6,0,0,1,16.6,12.758v-2.08h2.785v1.968a4.733,4.733,0,0,1,2.623,1.3l.341.33-.337.333-1.353,1.338-.321.317-.326-.312h0a2.591,2.591,0,0,0-1.926-.623c-.768,0-1.227.344-1.227.919a.609.609,0,0,0,.175.446A1.445,1.445,0,0,0,17.8,17l1.291.184h0a4.129,4.129,0,0,1,2.349.97,3.514,3.514,0,0,1,.989,2.658,3.662,3.662,0,0,1-3.042,3.606Z" transform="translate(-0.351)" fill="#f68000"/>
</svg>
