<svg width="34" height="35" viewBox="0 0 34 35" fill="none" xmlns="http://www.w3.org/2000/svg">
<path d="M16.6758 0.40918C17.9218 0.40918 19.0771 0.872368 20.0035 1.64858H20.0087C20.6492 2.18415 21.1779 2.86698 21.5586 3.65034L27.7549 15.617L27.7924 15.7129L32.5356 24.8461C33.0404 25.7898 33.3059 26.8733 33.3059 27.9799C33.3059 28.8473 33.1435 29.6767 32.851 30.4286L32.8562 30.4529C32.635 31.0106 32.3388 31.5278 31.9777 31.9868C31.5656 32.5207 31.0741 32.9723 30.5246 33.3221C29.7044 33.8513 28.7744 34.1351 27.8257 34.1457H27.733C26.5316 34.1469 25.3629 33.7116 24.4054 32.9063H24.4002C23.7596 32.3707 23.2309 31.6879 22.8503 30.9045L16.654 18.9379L16.6165 18.842L11.8504 9.66717C11.3589 8.72803 11.1006 7.66104 11.102 6.57501C11.102 5.9247 11.1936 5.29402 11.3632 4.70378L11.3726 4.66681L11.3892 4.61946C11.46 4.3792 11.5516 4.10198 11.5516 4.10198C11.77 3.55114 12.0624 3.04019 12.4187 2.58651L12.5061 2.47216L12.5269 2.4479V2.44213H12.5321L12.5436 2.42364L12.555 2.41902C12.9395 1.94937 13.3876 1.54913 13.8832 1.23275C14.7034 0.703585 15.6334 0.419803 16.5822 0.40918H16.6758ZM5.56244 34.1468H5.48022C4.53158 34.1354 3.60176 33.8517 2.78123 33.3233C2.22749 32.9733 1.74036 32.5182 1.32818 31.988C0.967052 31.529 0.670843 31.0118 0.449679 30.454L0.454883 30.4298C0.152731 29.6571 -0.00213349 28.8233 2.21993e-05 27.981C2.21993e-05 26.8317 0.282099 25.7621 0.770268 24.8473L5.51352 15.714L5.55099 15.6182L9.76861 7.47829C9.87166 8.4705 10.1475 9.44539 10.593 10.3348L10.6731 10.4861L15.3571 19.5039V19.4865L15.4497 19.7083L15.8504 20.4903L10.4556 30.9045C10.0749 31.6878 9.54621 32.3707 8.90573 32.9063H8.90052C7.94324 33.712 6.77435 34.1474 5.57285 34.1457L5.56244 34.1468Z" fill="#FF6A00"/>
</svg>
