<svg width="26" height="36" viewBox="0 0 26 36" fill="none" xmlns="http://www.w3.org/2000/svg"><path d="M22.2617 0.0822754C23.1848 0.0821503 24.0735 0.468662 24.7482 1.1637C25.4229 1.85873 25.8333 2.81046 25.8965 3.82653L25.9046 4.10163V31.787C25.9043 32.8051 25.5538 33.7852 24.9239 34.5293C24.294 35.2733 23.4317 35.7259 22.5111 35.7956L22.2617 35.8045H3.64283C2.71977 35.8047 1.83109 35.4182 1.15639 34.7231C0.481686 34.0281 0.0712733 33.0764 0.00809539 32.0603L2.75215e-08 31.787V4.10163C-0.000113368 3.08317 0.350189 2.10263 0.980113 1.35819C1.61004 0.61375 2.47261 0.160916 3.3935 0.0912075L3.64283 0.0822754H22.2617ZM6.07138 8.99989C5.74933 8.99989 5.44048 9.14105 5.21276 9.3923C4.98504 9.64356 4.8571 9.98434 4.8571 10.3397C4.8571 10.695 4.98504 11.0358 5.21276 11.287C5.44048 11.5383 5.74933 11.6795 6.07138 11.6795H19.8332C20.1552 11.6795 20.4641 11.5383 20.6918 11.287C20.9195 11.0358 21.0474 10.695 21.0474 10.3397C21.0474 9.98434 20.9195 9.64356 20.6918 9.3923C20.4641 9.14105 20.1552 8.99989 19.8332 8.99989H6.07138ZM4.8571 17.4852C4.8571 18.2248 5.4011 18.825 6.07138 18.825H19.8332C20.1552 18.825 20.4641 18.6838 20.6918 18.4326C20.9195 18.1813 21.0474 17.8405 21.0474 17.4852C21.0474 17.1299 20.9195 16.7891 20.6918 16.5378C20.4641 16.2866 20.1552 16.1454 19.8332 16.1454H6.07138C5.74933 16.1454 5.44048 16.2866 5.21276 16.5378C4.98504 16.7891 4.8571 17.1299 4.8571 17.4852ZM6.07138 23.2909C5.74933 23.2909 5.44048 23.4321 5.21276 23.6834C4.98504 23.9346 4.8571 24.2754 4.8571 24.6307C4.8571 24.9861 4.98504 25.3268 5.21276 25.5781C5.44048 25.8294 5.74933 25.9705 6.07138 25.9705H19.8332C20.1552 25.9705 20.4641 25.8294 20.6918 25.5781C20.9195 25.3268 21.0474 24.9861 21.0474 24.6307C21.0474 24.2754 20.9195 23.9346 20.6918 23.6834C20.4641 23.4321 20.1552 23.2909 19.8332 23.2909H6.07138Z" fill="#FF6A00"/></svg>