<svg width="34" height="40" viewBox="0 0 34 40" fill="none" xmlns="http://www.w3.org/2000/svg"><path d="M22.1941 32.4512H10.9094C10.7754 31.9191 10.5753 31.4088 10.3144 30.934L24.94 15.2473C25.9408 15.8805 27.102 16.1601 28.2592 16.0466C29.4163 15.933 30.5109 15.432 31.3879 14.6144C32.265 13.7968 32.8801 12.7042 33.1462 11.491C33.4123 10.2778 33.316 9.00558 32.8708 7.85437C32.4257 6.70315 31.6542 5.73125 30.6656 5.07621C29.6771 4.42116 28.5215 4.11616 27.3624 4.20435C26.2033 4.29255 25.0995 4.76947 24.207 5.56764C23.3146 6.36581 22.6788 7.44479 22.3896 8.65188H13.873V11.6268H22.3896C22.519 12.1596 22.7174 12.6703 22.979 13.144L8.35341 28.8307C7.35259 28.1975 6.19142 27.9179 5.03426 28.0315C3.8771 28.145 2.78255 28.6461 1.9055 29.4636C1.02846 30.2812 0.413352 31.3739 0.147226 32.587C-0.118899 33.8002 -0.0225612 35.0724 0.422607 36.2236C0.867775 37.3749 1.63923 38.3468 2.62778 39.0018C3.61634 39.6568 4.77193 39.9619 5.93101 39.8737C7.09009 39.7855 8.19396 39.3085 9.0864 38.5104C9.97883 37.7122 10.6146 36.6332 10.9038 35.4261H22.1941V39.8885H33.2888V27.9888H22.1941V32.4512ZM27.7414 7.16442C28.29 7.16442 28.8263 7.3389 29.2824 7.66578C29.7385 7.99267 30.094 8.45729 30.304 9.00089C30.5139 9.54448 30.5688 10.1426 30.4618 10.7197C30.3548 11.2968 30.0906 11.8269 29.7027 12.2429C29.3148 12.659 28.8206 12.9423 28.2826 13.0571C27.7445 13.1719 27.1868 13.113 26.68 12.8878C26.1732 12.6626 25.74 12.2813 25.4352 11.7921C25.1304 11.3029 24.9678 10.7277 24.9678 10.1393C24.9685 9.35058 25.2609 8.59436 25.781 8.03662C26.301 7.47889 27.006 7.16521 27.7414 7.16442V7.16442ZM5.552 36.9136C5.00341 36.9136 4.46715 36.7391 4.01102 36.4122C3.55489 36.0853 3.19938 35.6207 2.98945 35.0771C2.77952 34.5335 2.72459 33.9354 2.83161 33.3583C2.93863 32.7812 3.2028 32.2511 3.59071 31.8351C3.97861 31.419 4.47284 31.1357 5.01088 31.0209C5.54892 30.9061 6.10661 30.965 6.61344 31.1902C7.12026 31.4154 7.55345 31.7967 7.85823 32.2859C8.163 32.7751 8.32568 33.3503 8.32568 33.9387C8.32494 34.7274 8.03248 35.4837 7.51247 36.0414C6.99247 36.5991 6.2874 36.9128 5.552 36.9136ZM24.9678 30.9638H30.5151V36.9136H24.9678V30.9638ZM7.89992 15.7173C7.16207 15.0194 6.57114 14.161 6.16637 13.1993C5.7616 12.2376 5.55226 11.1945 5.55226 10.1393C5.55226 9.08417 5.7616 8.04108 6.16637 7.07935C6.57114 6.11763 7.16207 5.2593 7.89992 4.56137L9.73609 6.79256C9.29315 7.21132 8.93839 7.72641 8.69539 8.30358C8.45239 8.88075 8.32671 9.50679 8.32671 10.1401C8.32671 10.7734 8.45239 11.3994 8.69539 11.9766C8.93839 12.5538 9.29315 13.0688 9.73609 13.4876L7.89992 15.7173Z" fill="#FF6A00"/><path d="M4.22856 20.1813C2.9002 18.925 1.8363 17.3799 1.10757 15.6487C0.37884 13.9174 0.00195312 12.0397 0.00195312 10.1402C0.00195312 8.2407 0.37884 6.36295 1.10757 4.63172C1.8363 2.90048 2.9002 1.3554 4.22856 0.0991211L6.06475 2.3303C5.03153 3.30741 4.20401 4.50916 3.63719 5.85571C3.07037 7.20226 2.77722 8.66277 2.77722 10.1402C2.77722 11.6176 3.07037 13.0781 3.63719 14.4247C4.20401 15.7712 5.03153 16.973 6.06475 17.9501L4.22856 20.1813Z" fill="#FF6A00"/></svg>
