<svg width="26" height="37" viewBox="0 0 26 37" fill="none" xmlns="http://www.w3.org/2000/svg"><path d="M25.9046 18.5333C25.9046 18.0595 25.734 17.6052 25.4303 17.2703C25.1267 16.9353 24.7149 16.7471 24.2855 16.7471H11.997L15.7208 12.6569C15.8718 12.4904 15.9915 12.2927 16.0732 12.0751C16.1549 11.8575 16.197 11.6243 16.197 11.3888C16.197 11.1533 16.1549 10.9201 16.0732 10.7025C15.9915 10.4849 15.8718 10.2872 15.7208 10.1207C15.5699 9.95412 15.3907 9.82202 15.1934 9.73189C14.9962 9.64177 14.7848 9.59538 14.5713 9.59538C14.3578 9.59538 14.1464 9.64177 13.9492 9.73189C13.752 9.82202 13.5728 9.95412 13.4218 10.1207L6.94566 17.2651C6.79826 17.435 6.68272 17.6353 6.60566 17.8545C6.44373 18.2894 6.44373 18.7771 6.60566 19.212C6.68272 19.4312 6.79826 19.6315 6.94566 19.8014L13.4218 26.9458C13.5723 27.1133 13.7514 27.2461 13.9487 27.3368C14.146 27.4275 14.3576 27.4742 14.5713 27.4742C14.785 27.4742 14.9967 27.4275 15.194 27.3368C15.3912 27.2461 15.5703 27.1133 15.7208 26.9458C15.8726 26.7798 15.993 26.5823 16.0752 26.3646C16.1574 26.1469 16.1997 25.9135 16.1997 25.6777C16.1997 25.4419 16.1574 25.2085 16.0752 24.9908C15.993 24.7732 15.8726 24.5756 15.7208 24.4096L11.997 20.3194H24.2855C24.7149 20.3194 25.1267 20.1312 25.4303 19.7962C25.734 19.4613 25.9046 19.007 25.9046 18.5333ZM21.0474 0.672119H4.8571C3.56892 0.672119 2.3335 1.23666 1.42261 2.24154C0.511729 3.24642 0 4.60934 0 6.03046V31.036C0 32.4572 0.511729 33.8201 1.42261 34.825C2.3335 35.8298 3.56892 36.3944 4.8571 36.3944H21.0474C22.3356 36.3944 23.5711 35.8298 24.4819 34.825C25.3928 33.8201 25.9046 32.4572 25.9046 31.036V25.6777C25.9046 25.204 25.734 24.7497 25.4303 24.4147C25.1267 24.0798 24.7149 23.8916 24.2855 23.8916C23.8561 23.8916 23.4443 24.0798 23.1407 24.4147C22.8371 24.7497 22.6665 25.204 22.6665 25.6777V31.036C22.6665 31.5097 22.4959 31.9641 22.1923 32.299C21.8887 32.634 21.4768 32.8222 21.0474 32.8222H4.8571C4.42771 32.8222 4.0159 32.634 3.71227 32.299C3.40865 31.9641 3.23807 31.5097 3.23807 31.036V6.03046C3.23807 5.55675 3.40865 5.10245 3.71227 4.76749C4.0159 4.43253 4.42771 4.24435 4.8571 4.24435H21.0474C21.4768 4.24435 21.8887 4.43253 22.1923 4.76749C22.4959 5.10245 22.6665 5.55675 22.6665 6.03046V11.3888C22.6665 11.8625 22.8371 12.3168 23.1407 12.6518C23.4443 12.9867 23.8561 13.1749 24.2855 13.1749C24.7149 13.1749 25.1267 12.9867 25.4303 12.6518C25.734 12.3168 25.9046 11.8625 25.9046 11.3888V6.03046C25.9046 4.60934 25.3928 3.24642 24.4819 2.24154C23.5711 1.23666 22.3356 0.672119 21.0474 0.672119Z" fill="#FF6A00"/></svg>