<svg width="38" height="34" viewBox="0 0 38 34" fill="none" xmlns="http://www.w3.org/2000/svg"><g clip-path="url(#clip0_572_4695)"><path d="M34.5399 0.00031165H11.2681C10.4199 0.00031165 9.75586 0.681046 9.75586 1.55124V6.80907H12.7802V3.13995H33.0279V26.4408H17.169V31.6987C17.169 32.3417 17.0217 32.9468 16.7633 33.4765H34.54C35.3881 33.4765 36.0522 32.7957 36.0522 31.9256L36.0519 1.55119C36.0519 0.680978 35.3881 0.000244141 34.5397 0.000244141L34.5399 0.00031165ZM22.8855 31.4338C22.0741 31.4338 21.4105 30.753 21.4105 29.9208C21.4105 29.0887 22.0741 28.408 22.8855 28.408C23.697 28.408 24.3606 29.0887 24.3606 29.9208C24.3609 30.753 23.697 31.4338 22.8855 31.4338Z" fill="#FF6A00"/><path d="M13.3339 8.9646H2.74904C1.7902 8.9646 1.01562 9.75908 1.01562 10.7424V31.698C1.01562 32.6815 1.79025 33.4758 2.74904 33.4758H13.3339C14.2927 33.4758 15.0673 32.6815 15.0673 31.698V10.7424C15.0673 9.75901 14.2929 8.9646 13.3339 8.9646ZM6.58465 10.2506H9.46136C9.6826 10.2506 9.86706 10.4398 9.86706 10.6667C9.86706 10.8936 9.6826 11.0828 9.46136 11.0828H6.58465C6.36341 11.0828 6.17895 10.8936 6.17895 10.6667C6.17895 10.4398 6.36341 10.2506 6.58465 10.2506ZM8.02301 32.1519C7.39607 32.1519 6.87976 31.6224 6.87976 30.9794C6.87976 30.3364 7.39608 29.8069 8.02301 29.8069C8.64994 29.8069 9.16625 30.3364 9.16625 30.9794C9.16651 31.6224 8.65019 32.1519 8.02301 32.1519ZM13.4078 28.5205H2.63852V12.4066H13.4446V28.5205H13.4078Z" fill="#FF6A00"/></g><defs><clipPath id="clip0_572_4695"><rect width="37.0065" height="33.7377" fill="white"/></clipPath></defs></svg>
