<svg xmlns="http://www.w3.org/2000/svg" width="32.678" height="33.401" viewBox="0 0 32.678 33.401">
  <g id="Group_549" data-name="Group 549" transform="translate(-1.834 0.215)">
    <path id="Path_84" data-name="Path 84" d="M25.288,32.577a7.288,7.288,0,1,1,7.288-7.288A7.3,7.3,0,0,1,25.288,32.577Zm0-14.056a6.768,6.768,0,1,0,6.768,6.768A6.776,6.776,0,0,0,25.288,18.521ZM19.823,39.343a.256.256,0,0,1-.1-.018q-.472-.187-.928-.4a.26.26,0,0,1,.224-.47q.44.21.9.39a.26.26,0,0,1-.1.5Z" transform="translate(-7.115 -8.442)" fill="#ff6a00" stroke="#ff6a00" stroke-width="0.4"/>
    <path id="Path_85" data-name="Path 85" d="M14.965,32.4a.272.272,0,0,1-.278-.266V30.1A13.324,13.324,0,0,1,5.226,17.5,12.927,12.927,0,0,1,9.4,8,14.165,14.165,0,0,1,19.416,4.2a.283.283,0,0,1,.279.273v.413L21.25,3.395,19.7,1.909v.429a.26.26,0,0,1-.083.189.346.346,0,0,1-.2.077L19.139,2.6C10.547,2.6,3.557,9.281,3.557,17.5a14.862,14.862,0,0,0,7.6,12.8.261.261,0,0,1,.1.365.287.287,0,0,1-.382.092A15.4,15.4,0,0,1,3,17.5C3,8.988,10.24,2.064,19.139,2.064v-.8a.266.266,0,0,1,.172-.246.289.289,0,0,1,.3.057L21.84,3.207a.258.258,0,0,1,0,.376L19.614,5.711a.287.287,0,0,1-.3.057.265.265,0,0,1-.172-.245v-.8h0A13.578,13.578,0,0,0,9.787,8.378a12.412,12.412,0,0,0-4,9.119,12.8,12.8,0,0,0,9.267,12.16.268.268,0,0,1,.193.253v2.221A.272.272,0,0,1,14.965,32.4Zm3.9,1.6a.287.287,0,0,1-.2-.078l-2.226-2.129a.258.258,0,0,1,0-.376l2.226-2.129a.287.287,0,0,1,.3-.057.265.265,0,0,1,.172.245v.8h0a13.578,13.578,0,0,0,9.349-3.653,12.412,12.412,0,0,0,4-9.119,12.8,12.8,0,0,0-9.267-12.16.268.268,0,0,1-.193-.253V2.863a.279.279,0,0,1,.557,0V4.891A13.324,13.324,0,0,1,33.051,17.5,12.927,12.927,0,0,1,28.88,27a14.183,14.183,0,0,1-10.018,3.8.283.283,0,0,1-.279-.273v-.413L17.028,31.6l1.554,1.486v-.429a.26.26,0,0,1,.083-.189.244.244,0,0,1,.2-.077l.274.007c8.592,0,15.582-6.685,15.582-14.9a14.862,14.862,0,0,0-7.6-12.8.261.261,0,0,1-.1-.365.287.287,0,0,1,.382-.092A15.4,15.4,0,0,1,35.277,17.5c0,8.51-7.24,15.433-16.139,15.433v.8a.266.266,0,0,1-.172.246A.283.283,0,0,1,18.86,33.995Z" transform="translate(-0.966 -1.01)" fill="#ff6a00" stroke="#ff6a00" stroke-width="0.4"/>
    <path id="Path_86" data-name="Path 86" d="M29.411,22.831H28.047a.228.228,0,0,1-.227-.227V21.467H26.227A.228.228,0,0,1,26,21.239V19.875a.228.228,0,0,1,.227-.227h3.411v-.91H26.227A.228.228,0,0,1,26,18.51V14.416a.228.228,0,0,1,.227-.227h1.592V13.052a.228.228,0,0,1,.227-.227h1.365a.228.228,0,0,1,.227.227v1.137h1.592a.228.228,0,0,1,.227.227v1.365a.228.228,0,0,1-.227.227H27.819v.91h3.411a.228.228,0,0,1,.227.227v4.094a.228.228,0,0,1-.227.227H29.639V22.6A.228.228,0,0,1,29.411,22.831Zm-1.137-.455h.91V21.239a.228.228,0,0,1,.227-.227H31V17.373H27.592a.228.228,0,0,1-.227-.227V15.781a.228.228,0,0,1,.227-.227H31v-.91H29.411a.228.228,0,0,1-.227-.227V13.279h-.91v1.137a.228.228,0,0,1-.227.227H26.455v3.639h3.411a.228.228,0,0,1,.227.227v1.365a.228.228,0,0,1-.227.227H26.455v.91h1.592a.228.228,0,0,1,.227.227Z" transform="translate(-10.556 -1.34)" fill="#ff6a00" stroke="#ff6a00" stroke-width="0.4"/>
    <path id="Path_87" data-name="Path 87" d="M22.971,33.583a.3.3,0,0,1-.2-.078l-1.832-1.727-2.4.921a.3.3,0,0,1-.218,0,.278.278,0,0,1-.153-.146l-.948-2.2H14.7a.277.277,0,0,1-.285-.269V27.643l-2.387-.948a.278.278,0,0,1-.153-.146.254.254,0,0,1,0-.206l.977-2.186-1.778-1.678a.258.258,0,0,1,0-.38l1.831-1.727-.977-2.263a.264.264,0,0,1,.156-.35l2.33-.895V14.492a.277.277,0,0,1,.285-.269h2.59L18.3,11.972a.279.279,0,0,1,.155-.145.3.3,0,0,1,.218,0l2.317.921,1.779-1.677a.3.3,0,0,1,.4,0L25,12.8l2.4-.921a.3.3,0,0,1,.218,0,.278.278,0,0,1,.153.146l.948,2.2h2.516a.277.277,0,0,1,.285.269v2.442l2.387.948a.278.278,0,0,1,.153.146.254.254,0,0,1,0,.206l-.977,2.186L34.865,22.1a.258.258,0,0,1,0,.38l-1.831,1.727.977,2.263a.264.264,0,0,1-.156.35l-2.33.895v2.372a.277.277,0,0,1-.285.269h-2.59L27.642,32.6a.279.279,0,0,1-.155.145.3.3,0,0,1-.218,0l-2.317-.921L23.173,33.5A.3.3,0,0,1,22.971,33.583Zm-1.965-2.391a.3.3,0,0,1,.2.079l1.764,1.664,1.713-1.615A.3.3,0,0,1,25,31.262l2.232.887L28.2,29.98a.286.286,0,0,1,.263-.165h2.494V27.532a.269.269,0,0,1,.178-.249l2.244-.861-.94-2.179a.258.258,0,0,1,.062-.291l1.763-1.663-1.713-1.615a.257.257,0,0,1-.061-.295l.94-2.105-2.3-.913a.268.268,0,0,1-.174-.247V14.761H28.531a.285.285,0,0,1-.264-.168l-.913-2.115-2.31.887a.3.3,0,0,1-.309-.059l-1.764-1.663-1.713,1.615a.3.3,0,0,1-.312.058l-2.232-.887L17.746,14.6a.286.286,0,0,1-.263.165H14.988v2.284a.269.269,0,0,1-.178.249l-2.244.861.94,2.179a.258.258,0,0,1-.062.291l-1.763,1.663L13.395,23.9a.257.257,0,0,1,.061.295l-.94,2.105,2.3.913a.268.268,0,0,1,.174.247v2.352h2.422a.285.285,0,0,1,.264.168l.913,2.115,2.31-.887A.283.283,0,0,1,21.005,31.192Z" transform="translate(-4.798 -5.8)" fill="#ff6a00" stroke="#ff6a00" stroke-width="0.4"/>
  </g>
</svg>
