<svg xmlns="http://www.w3.org/2000/svg" width="19.898" height="15.818" viewBox="0 0 19.898 15.818">
  <g id="Group_440" data-name="Group 440" transform="translate(-33.66 -67.77)">
    <path id="Path_16" data-name="Path 16" d="M48.815,86.5v6.082a1.435,1.435,0,0,1-1.435,1.435H35.1a1.432,1.432,0,0,1-1.151-.577c-.019-.026-.038-.052-.055-.08a1.427,1.427,0,0,1-.23-.778V80.295A1.434,1.434,0,0,1,35.1,78.86H47.38a1.433,1.433,0,0,1,1.241.715L46.646,81.55l-4.371,4.372-3.184-3.184a1.708,1.708,0,0,0-2.247,0l-1.311,1.31a1.472,1.472,0,0,0-.385.759,1.682,1.682,0,0,0,.385,1.489l5.618,5.618a1.709,1.709,0,0,0,2.247,0L44.709,90.6,48.815,86.5Z" transform="translate(0 -10.427)" fill="#dfe8f7"/>
    <path id="Path_17" data-name="Path 17" d="M75.959,71.749l-4.321,4.322-4.105,4.105-1.311,1.311a1.709,1.709,0,0,1-2.247,0L58.357,75.87a1.682,1.682,0,0,1-.385-1.489,1.472,1.472,0,0,1,.385-.759l1.311-1.31a1.708,1.708,0,0,1,2.247,0L65.1,75.5l4.371-4.372,1.975-1.975.957-.956a1.708,1.708,0,0,1,2.247,0l1.311,1.31a1.408,1.408,0,0,1,.334.563A1.714,1.714,0,0,1,75.959,71.749Z" transform="translate(-22.823 0)" fill="#ff6a00"/>
  </g>
</svg>
