<svg xmlns="http://www.w3.org/2000/svg" width="49.527" height="59.5" viewBox="0 0 49.527 59.5">
  <g id="s1" transform="translate(-0.36 -0.273)">
    <path id="Path_101" data-name="Path 101" d="M25.123,59.773a2.3,2.3,0,0,1-1.319-.412C2.083,44.327.36,29.7.36,12.133A2.317,2.317,0,0,1,2.243,9.855,61.983,61.983,0,0,0,23.773.707a2.32,2.32,0,0,1,2.7,0A62.014,62.014,0,0,0,48,9.855a2.318,2.318,0,0,1,1.883,2.278c0,17.566-1.726,32.193-23.443,47.228A2.313,2.313,0,0,1,25.123,59.773Z" transform="translate(0 0)" fill="#f68000"/>
    <path id="Path_102" data-name="Path 102" d="M20.621,33.572a2.949,2.949,0,0,1-2.07-.846l-7.756-7.61A2.953,2.953,0,1,1,14.932,20.9L20.6,26.46,31.875,15.183a2.956,2.956,0,1,1,4.18,4.18L22.71,32.705a2.958,2.958,0,0,1-2.089.867Z" transform="translate(3.456 5.083)" fill="#fff"/>
  </g>
</svg>
