<svg xmlns="http://www.w3.org/2000/svg" width="61.221" height="46.634" viewBox="0 0 61.221 46.634">
  <path id="s3" d="M57.975,0H5.124A4.185,4.185,0,0,0,.938,4.185v16.74A4.185,4.185,0,0,0,5.124,25.11H29.755V31.3a7.772,7.772,0,1,0,3.587,0V25.11H57.974a4.185,4.185,0,0,0,4.185-4.185V4.185A4.184,4.184,0,0,0,57.974,0ZM13.493,17.936a5.387,5.387,0,1,1,3.8-1.578A5.381,5.381,0,0,1,13.493,17.936Zm18.056-3.587H25.571a1.794,1.794,0,0,1,0-3.587h5.979a1.794,1.794,0,0,1,0,3.587Zm21.524,0H37.528a1.794,1.794,0,0,1,0-3.587H53.073a1.794,1.794,0,0,1,0,3.587Z" transform="translate(-0.938)" fill="#f68000"/>
</svg>
