<svg xmlns="http://www.w3.org/2000/svg" xmlns:xlink="http://www.w3.org/1999/xlink" width="60" height="60" viewBox="0 0 60 60"><defs><filter id="pin" x="0" y="0" width="60" height="60" filterUnits="userSpaceOnUse"><feOffset dy="3" input="SourceAlpha"/><feGaussianBlur stdDeviation="3" result="blur"/><feFlood flood-opacity="0.161"/><feComposite operator="in" in2="blur"/><feComposite in="SourceGraphic"/></filter></defs><g id="Group_775" data-name="Group 775" transform="translate(-942.5 -3572.5)"><g transform="matrix(1, 0, 0, 1, 942.5, 3572.5)" filter="url(#pin)"><circle id="pin-2" data-name="pin" cx="21" cy="21" r="21" transform="translate(9 6)" fill="#ff6a00"/></g><path id="Path_58099" data-name="Path 58099" d="M12.351,0C5.594,0,2,4.33,2,9.052c0,2.19,1.224,4.92,3.182,5.786.3.134.459.077.525-.2.059-.21.316-1.219.441-1.7a.436.436,0,0,0-.1-.428A5.615,5.615,0,0,1,4.877,9.109c0-3.293,2.618-6.491,7.073-6.491,3.852,0,6.548,2.5,6.548,6.082,0,4.045-2.14,6.844-4.922,6.844a2.2,2.2,0,0,1-2.322-2.7c.439-1.78,1.3-3.694,1.3-4.977a1.912,1.912,0,0,0-1.979-2.1C9.008,5.76,7.737,7.312,7.737,9.4a5.183,5.183,0,0,0,.468,2.217L6.367,19.045a16.63,16.63,0,0,0,.114,5.463.162.162,0,0,0,.3.076,19.415,19.415,0,0,0,2.552-4.806c.191-.7.975-3.56.975-3.56A4.26,4.26,0,0,0,13.9,17.931c4.722,0,8.133-4.15,8.133-9.3C22.014,3.694,17.789,0,12.351,0" transform="translate(960.484 3587.673)" fill="#fff"/></g></svg>