<svg xmlns="http://www.w3.org/2000/svg" xmlns:xlink="http://www.w3.org/1999/xlink" width="60" height="60" viewBox="0 0 60 60"><defs><filter id="Ellipse_602" x="0" y="0" width="60" height="60" filterUnits="userSpaceOnUse"><feOffset dy="3" input="SourceAlpha"/><feGaussianBlur stdDeviation="3" result="blur"/><feFlood flood-opacity="0.161"/><feComposite operator="in" in2="blur"/><feComposite in="SourceGraphic"/></filter></defs><g id="Group_774" data-name="Group 774" transform="translate(-887 -3573)"><g transform="matrix(1, 0, 0, 1, 887, 3573)" filter="url(#Ellipse_602)"><circle id="Ellipse_602-2" data-name="Ellipse 602" cx="21" cy="21" r="21" transform="translate(9 6)" fill="#ff6a00"/></g><path id="Path_58098" data-name="Path 58098" d="M18.975,15.956c-.233-.116-1.744-.814-1.976-.93a.548.548,0,0,0-.7.116c-.233.233-.7.93-.93,1.163-.116.233-.349.233-.581.116a9.5,9.5,0,0,1-2.325-1.4,13.383,13.383,0,0,1-1.628-1.976.511.511,0,0,1,.116-.581c.116-.116.233-.349.465-.465a.881.881,0,0,0,.233-.465.354.354,0,0,0,0-.465,20.667,20.667,0,0,1-.93-2.093c-.116-.814-.349-.814-.581-.814H9.557a1.326,1.326,0,0,0-.7.349,3.346,3.346,0,0,0-1.046,2.442,6.09,6.09,0,0,0,1.163,3.023,12.4,12.4,0,0,0,4.883,4.3,9.113,9.113,0,0,0,1.628.581,3.321,3.321,0,0,0,1.86.116,3.012,3.012,0,0,0,1.976-1.4,1.944,1.944,0,0,0,.116-1.4l-.465-.233m2.907-10.58A11.589,11.589,0,0,0,3.628,19.327L2,25.257l6.162-1.628A11.487,11.487,0,0,0,25.137,13.514a11.324,11.324,0,0,0-3.255-8.138M18.742,21.653a9.757,9.757,0,0,1-5.116,1.511,10.2,10.2,0,0,1-4.883-1.279l-.349-.233-3.6.93.93-3.488-.233-.349A9.762,9.762,0,0,1,8.627,5.376,9.458,9.458,0,0,1,21.765,8.4a9.594,9.594,0,0,1-3.023,13.254" transform="translate(903.429 3585.884)" fill="#fff"/></g></svg>