<svg xmlns="http://www.w3.org/2000/svg" xmlns:xlink="http://www.w3.org/1999/xlink" width="60" height="60" viewBox="0 0 60 60"><defs><filter id="Ellipse_602" x="0" y="0" width="60" height="60" filterUnits="userSpaceOnUse"><feOffset dy="3" input="SourceAlpha"/><feGaussianBlur stdDeviation="3" result="blur"/><feFlood flood-opacity="0.161"/><feComposite operator="in" in2="blur"/><feComposite in="SourceGraphic"/></filter></defs><g id="Group_694" data-name="Group 694" transform="translate(-898.5 -3573)"><g transform="matrix(1, 0, 0, 1, 898.5, 3573)" filter="url(#Ellipse_602)"><circle id="Ellipse_602-2" data-name="Ellipse 602" cx="21" cy="21" r="21" transform="translate(9 6)" fill="#ff6a00"/></g><path id="Path_58097" data-name="Path 58097" d="M25.753,6.166a10.083,10.083,0,0,1-2.8.76,4.9,4.9,0,0,0,2.15-2.7A9.751,9.751,0,0,1,22,5.418,4.869,4.869,0,0,0,13.686,9.86,13.824,13.824,0,0,1,3.651,4.765,4.941,4.941,0,0,0,3,7.223a4.857,4.857,0,0,0,2.162,4.05,4.81,4.81,0,0,1-2.209-.606v.059a4.869,4.869,0,0,0,3.919,4.751,4.667,4.667,0,0,1-1.306.2,5.819,5.819,0,0,1-.914-.083A4.881,4.881,0,0,0,9.2,18.969a9.762,9.762,0,0,1-6.009,2.09A9.418,9.418,0,0,1,2,20.988a13.741,13.741,0,0,0,7.47,2.2A13.765,13.765,0,0,0,23.378,9.313V8.684a10.012,10.012,0,0,0,2.375-2.518Z" transform="translate(914.747 3587.388)" fill="#fff"/></g></svg>
